<?xml version="1.0" encoding="UTF-8"?><svg xmlns="http://www.w3.org/2000/svg" xmlns:xlink="http://www.w3.org/1999/xlink" fill-opacity="1" color-rendering="auto" color-interpolation="auto" text-rendering="auto" stroke="black" stroke-linecap="square" width="1514" stroke-miterlimit="10" shape-rendering="auto" stroke-opacity="1" fill="black" stroke-dasharray="none" font-weight="normal" stroke-width="1" height="916" font-family="'Dialog'" font-style="normal" stroke-linejoin="miter" font-size="12px" stroke-dashoffset="0" image-rendering="auto">
  <!--Generated by ySVG 2.6-->
  <defs id="genericDefs"/>
  <g>
    <defs id="defs1">
      <clipPath clipPathUnits="userSpaceOnUse" id="clipPath1">
        <path d="M0 0 L1514 0 L1514 916 L0 916 L0 0 Z"/>
      </clipPath>
      <clipPath clipPathUnits="userSpaceOnUse" id="clipPath2">
        <path d="M-15 -15 L1499 -15 L1499 901 L-15 901 L-15 -15 Z"/>
      </clipPath>
    </defs>
    <g fill="rgb(255,204,0)" text-rendering="geometricPrecision" shape-rendering="geometricPrecision" transform="matrix(1,0,0,1,15,15)" stroke="rgb(255,204,0)">
      <rect x="908.3078" width="78.9043" height="30" y="855.0206" clip-path="url(#clipPath2)" stroke="none"/>
    </g>
    <g text-rendering="geometricPrecision" stroke-miterlimit="1.45" shape-rendering="geometricPrecision" transform="matrix(1,0,0,1,15,15)" stroke-linecap="butt">
      <rect fill="none" x="908.3078" width="78.9043" height="30" y="855.0206" clip-path="url(#clipPath2)"/>
      <text x="915.3078" xml:space="preserve" y="874.1749" clip-path="url(#clipPath2)" font-family="sans-serif" stroke="none">BaseTypes</text>
    </g>
    <g fill="rgb(255,204,0)" text-rendering="geometricPrecision" shape-rendering="geometricPrecision" transform="matrix(1,0,0,1,15,15)" stroke="rgb(255,204,0)">
      <rect x="909.1913" width="95.2285" height="30" y="529.8954" clip-path="url(#clipPath2)" stroke="none"/>
    </g>
    <g text-rendering="geometricPrecision" stroke-miterlimit="1.45" shape-rendering="geometricPrecision" transform="matrix(1,0,0,1,15,15)" stroke-linecap="butt">
      <rect fill="none" x="909.1913" width="95.2285" height="30" y="529.8954" clip-path="url(#clipPath2)"/>
      <text x="916.1913" xml:space="preserve" y="549.0497" clip-path="url(#clipPath2)" font-family="sans-serif" stroke="none">AddrsegTools</text>
    </g>
    <g fill="rgb(255,204,0)" text-rendering="geometricPrecision" shape-rendering="geometricPrecision" transform="matrix(1,0,0,1,15,15)" stroke="rgb(255,204,0)">
      <rect x="660.5787" width="103.1973" height="30" y="664.0489" clip-path="url(#clipPath2)" stroke="none"/>
    </g>
    <g text-rendering="geometricPrecision" stroke-miterlimit="1.45" shape-rendering="geometricPrecision" transform="matrix(1,0,0,1,15,15)" stroke-linecap="butt">
      <rect fill="none" x="660.5787" width="103.1973" height="30" y="664.0489" clip-path="url(#clipPath2)"/>
      <text x="667.5787" xml:space="preserve" y="683.2032" clip-path="url(#clipPath2)" font-family="sans-serif" stroke="none">BaseInterfaces</text>
    </g>
    <g fill="rgb(255,204,0)" text-rendering="geometricPrecision" shape-rendering="geometricPrecision" transform="matrix(1,0,0,1,15,15)" stroke="rgb(255,204,0)">
      <rect x="1160.2557" width="36.5234" height="30" y="664.0489" clip-path="url(#clipPath2)" stroke="none"/>
    </g>
    <g text-rendering="geometricPrecision" stroke-miterlimit="1.45" shape-rendering="geometricPrecision" transform="matrix(1,0,0,1,15,15)" stroke-linecap="butt">
      <rect fill="none" x="1160.2557" width="36.5234" height="30" y="664.0489" clip-path="url(#clipPath2)"/>
      <text x="1167.2557" xml:space="preserve" y="683.2032" clip-path="url(#clipPath2)" font-family="sans-serif" stroke="none">Bits</text>
    </g>
    <g fill="rgb(255,204,0)" text-rendering="geometricPrecision" shape-rendering="geometricPrecision" transform="matrix(1,0,0,1,15,15)" stroke="rgb(255,204,0)">
      <rect x="1065.42" width="104.375" height="30" y="529.8954" clip-path="url(#clipPath2)" stroke="none"/>
    </g>
    <g text-rendering="geometricPrecision" stroke-miterlimit="1.45" shape-rendering="geometricPrecision" transform="matrix(1,0,0,1,15,15)" stroke-linecap="butt">
      <rect fill="none" x="1065.42" width="104.375" height="30" y="529.8954" clip-path="url(#clipPath2)"/>
      <text x="1072.42" xml:space="preserve" y="549.0497" clip-path="url(#clipPath2)" font-family="sans-serif" stroke="none">Bits_Workmem</text>
    </g>
    <g fill="rgb(255,204,0)" text-rendering="geometricPrecision" shape-rendering="geometricPrecision" transform="matrix(1,0,0,1,15,15)" stroke="rgb(255,204,0)">
      <rect x="429.8878" width="90.3887" height="30" y="410.6724" clip-path="url(#clipPath2)" stroke="none"/>
    </g>
    <g text-rendering="geometricPrecision" stroke-miterlimit="1.45" shape-rendering="geometricPrecision" transform="matrix(1,0,0,1,15,15)" stroke-linecap="butt">
      <rect fill="none" x="429.8878" width="90.3887" height="30" y="410.6724" clip-path="url(#clipPath2)"/>
      <text x="436.8878" xml:space="preserve" y="429.8267" clip-path="url(#clipPath2)" font-family="sans-serif" stroke="none">CodecDecInt</text>
    </g>
    <g fill="rgb(255,204,0)" text-rendering="geometricPrecision" shape-rendering="geometricPrecision" transform="matrix(1,0,0,1,15,15)" stroke="rgb(255,204,0)">
      <rect x="609.2522" width="89.2812" height="30" y="529.8954" clip-path="url(#clipPath2)" stroke="none"/>
    </g>
    <g text-rendering="geometricPrecision" stroke-miterlimit="1.45" shape-rendering="geometricPrecision" transform="matrix(1,0,0,1,15,15)" stroke-linecap="butt">
      <rect fill="none" x="609.2522" width="89.2812" height="30" y="529.8954" clip-path="url(#clipPath2)"/>
      <text x="616.2523" xml:space="preserve" y="549.0497" clip-path="url(#clipPath2)" font-family="sans-serif" stroke="none">StreamTools</text>
    </g>
    <g fill="rgb(255,204,0)" text-rendering="geometricPrecision" shape-rendering="geometricPrecision" transform="matrix(1,0,0,1,15,15)" stroke="rgb(255,204,0)">
      <rect x="331.9626" width="123.2891" height="30" y="529.8954" clip-path="url(#clipPath2)" stroke="none"/>
    </g>
    <g text-rendering="geometricPrecision" stroke-miterlimit="1.45" shape-rendering="geometricPrecision" transform="matrix(1,0,0,1,15,15)" stroke-linecap="butt">
      <rect fill="none" x="331.9626" width="123.2891" height="30" y="529.8954" clip-path="url(#clipPath2)"/>
      <text x="338.9626" xml:space="preserve" y="549.0497" clip-path="url(#clipPath2)" font-family="sans-serif" stroke="none">StreamsCollection</text>
    </g>
    <g fill="rgb(255,204,0)" text-rendering="geometricPrecision" shape-rendering="geometricPrecision" transform="matrix(1,0,0,1,15,15)" stroke="rgb(255,204,0)">
      <rect x="376.7535" width="60.5469" height="30" y="664.0489" clip-path="url(#clipPath2)" stroke="none"/>
    </g>
    <g text-rendering="geometricPrecision" stroke-miterlimit="1.45" shape-rendering="geometricPrecision" transform="matrix(1,0,0,1,15,15)" stroke-linecap="butt">
      <rect fill="none" x="376.7535" width="60.5469" height="30" y="664.0489" clip-path="url(#clipPath2)"/>
      <text x="383.7535" xml:space="preserve" y="683.2032" clip-path="url(#clipPath2)" font-family="sans-serif" stroke="none">Eeprom</text>
    </g>
    <g fill="rgb(255,204,0)" text-rendering="geometricPrecision" shape-rendering="geometricPrecision" transform="matrix(1,0,0,1,15,15)" stroke="rgb(255,204,0)">
      <rect x="201.8447" width="113.9082" height="30" y="664.0489" clip-path="url(#clipPath2)" stroke="none"/>
    </g>
    <g text-rendering="geometricPrecision" stroke-miterlimit="1.45" shape-rendering="geometricPrecision" transform="matrix(1,0,0,1,15,15)" stroke-linecap="butt">
      <rect fill="none" x="201.8447" width="113.9082" height="30" y="664.0489" clip-path="url(#clipPath2)"/>
      <text x="208.8447" xml:space="preserve" y="683.2032" clip-path="url(#clipPath2)" font-family="sans-serif" stroke="none">ProgramMemory</text>
    </g>
    <g fill="rgb(255,204,0)" text-rendering="geometricPrecision" shape-rendering="geometricPrecision" transform="matrix(1,0,0,1,15,15)" stroke="rgb(255,204,0)">
      <rect x="132.0691" width="39.7754" height="30" y="664.0489" clip-path="url(#clipPath2)" stroke="none"/>
    </g>
    <g text-rendering="geometricPrecision" stroke-miterlimit="1.45" shape-rendering="geometricPrecision" transform="matrix(1,0,0,1,15,15)" stroke-linecap="butt">
      <rect fill="none" x="132.0691" width="39.7754" height="30" y="664.0489" clip-path="url(#clipPath2)"/>
      <text x="139.069" xml:space="preserve" y="683.2032" clip-path="url(#clipPath2)" font-family="sans-serif" stroke="none">Uart</text>
    </g>
    <g fill="rgb(255,204,0)" text-rendering="geometricPrecision" shape-rendering="geometricPrecision" transform="matrix(1,0,0,1,15,15)" stroke="rgb(255,204,0)">
      <rect x="824.7763" width="93.8926" height="30" y="664.0489" clip-path="url(#clipPath2)" stroke="none"/>
    </g>
    <g text-rendering="geometricPrecision" stroke-miterlimit="1.45" shape-rendering="geometricPrecision" transform="matrix(1,0,0,1,15,15)" stroke-linecap="butt">
      <rect fill="none" x="824.7763" width="93.8926" height="30" y="664.0489" clip-path="url(#clipPath2)"/>
      <text x="831.7763" xml:space="preserve" y="683.2032" clip-path="url(#clipPath2)" font-family="sans-serif" stroke="none">WorkMemory</text>
    </g>
    <g fill="rgb(255,204,0)" text-rendering="geometricPrecision" shape-rendering="geometricPrecision" transform="matrix(1,0,0,1,15,15)" stroke="rgb(255,204,0)">
      <rect x="511.1531" width="61.6367" height="30" y="295.7825" clip-path="url(#clipPath2)" stroke="none"/>
    </g>
    <g text-rendering="geometricPrecision" stroke-miterlimit="1.45" shape-rendering="geometricPrecision" transform="matrix(1,0,0,1,15,15)" stroke-linecap="butt">
      <rect fill="none" x="511.1531" width="61.6367" height="30" y="295.7825" clip-path="url(#clipPath2)"/>
      <text x="518.1531" xml:space="preserve" y="314.9368" clip-path="url(#clipPath2)" font-family="sans-serif" stroke="none">Console</text>
    </g>
    <g fill="rgb(255,204,0)" text-rendering="geometricPrecision" shape-rendering="geometricPrecision" transform="matrix(1,0,0,1,15,15)" stroke="rgb(255,204,0)">
      <rect x="591.0824" width="107.4512" height="30" y="410.6724" clip-path="url(#clipPath2)" stroke="none"/>
    </g>
    <g text-rendering="geometricPrecision" stroke-miterlimit="1.45" shape-rendering="geometricPrecision" transform="matrix(1,0,0,1,15,15)" stroke-linecap="butt">
      <rect fill="none" x="591.0824" width="107.4512" height="30" y="410.6724" clip-path="url(#clipPath2)"/>
      <text x="598.0823" xml:space="preserve" y="429.8267" clip-path="url(#clipPath2)" font-family="sans-serif" stroke="none">WorkmemTools</text>
    </g>
    <g fill="rgb(255,204,0)" text-rendering="geometricPrecision" shape-rendering="geometricPrecision" transform="matrix(1,0,0,1,15,15)" stroke="rgb(255,204,0)">
      <rect x="498.301" width="132.2773" height="30" y="664.0489" clip-path="url(#clipPath2)" stroke="none"/>
    </g>
    <g text-rendering="geometricPrecision" stroke-miterlimit="1.45" shape-rendering="geometricPrecision" transform="matrix(1,0,0,1,15,15)" stroke-linecap="butt">
      <rect fill="none" x="498.301" width="132.2773" height="30" y="664.0489" clip-path="url(#clipPath2)"/>
      <text x="505.301" xml:space="preserve" y="683.2032" clip-path="url(#clipPath2)" font-family="sans-serif" stroke="none">ConvertUnits_Angle</text>
    </g>
    <g fill="rgb(255,204,0)" text-rendering="geometricPrecision" shape-rendering="geometricPrecision" transform="matrix(1,0,0,1,15,15)" stroke="rgb(255,204,0)">
      <rect x="1376.7697" width="68.2051" height="30" y="664.0489" clip-path="url(#clipPath2)" stroke="none"/>
    </g>
    <g text-rendering="geometricPrecision" stroke-miterlimit="1.45" shape-rendering="geometricPrecision" transform="matrix(1,0,0,1,15,15)" stroke-linecap="butt">
      <rect fill="none" x="1376.7697" width="68.2051" height="30" y="664.0489" clip-path="url(#clipPath2)"/>
      <text x="1383.7697" xml:space="preserve" y="683.2032" clip-path="url(#clipPath2)" font-family="sans-serif" stroke="none">Counters</text>
    </g>
    <g fill="rgb(255,204,0)" text-rendering="geometricPrecision" shape-rendering="geometricPrecision" transform="matrix(1,0,0,1,15,15)" stroke="rgb(255,204,0)">
      <rect x="1149.7517" width="54.6641" height="30" y="410.6724" clip-path="url(#clipPath2)" stroke="none"/>
    </g>
    <g text-rendering="geometricPrecision" stroke-miterlimit="1.45" shape-rendering="geometricPrecision" transform="matrix(1,0,0,1,15,15)" stroke-linecap="butt">
      <rect fill="none" x="1149.7517" width="54.6641" height="30" y="410.6724" clip-path="url(#clipPath2)"/>
      <text x="1156.7517" xml:space="preserve" y="429.8267" clip-path="url(#clipPath2)" font-family="sans-serif" stroke="none">Delays</text>
    </g>
    <g fill="rgb(255,204,0)" text-rendering="geometricPrecision" shape-rendering="geometricPrecision" transform="matrix(1,0,0,1,15,15)" stroke="rgb(255,204,0)">
      <rect x="954.1429" width="45.377" height="30" y="143.6309" clip-path="url(#clipPath2)" stroke="none"/>
    </g>
    <g text-rendering="geometricPrecision" stroke-miterlimit="1.45" shape-rendering="geometricPrecision" transform="matrix(1,0,0,1,15,15)" stroke-linecap="butt">
      <rect fill="none" x="954.1429" width="45.377" height="30" y="143.6309" clip-path="url(#clipPath2)"/>
      <text x="961.1429" xml:space="preserve" y="162.7852" clip-path="url(#clipPath2)" font-family="sans-serif" stroke="none">Heap</text>
    </g>
    <g fill="rgb(255,204,0)" text-rendering="geometricPrecision" shape-rendering="geometricPrecision" transform="matrix(1,0,0,1,15,15)" stroke="rgb(255,204,0)">
      <rect x="711.5454" width="34.9766" height="30" y="295.7825" clip-path="url(#clipPath2)" stroke="none"/>
    </g>
    <g text-rendering="geometricPrecision" stroke-miterlimit="1.45" shape-rendering="geometricPrecision" transform="matrix(1,0,0,1,15,15)" stroke-linecap="butt">
      <rect fill="none" x="711.5454" width="34.9766" height="30" y="295.7825" clip-path="url(#clipPath2)"/>
      <text x="718.5455" xml:space="preserve" y="314.9368" clip-path="url(#clipPath2)" font-family="sans-serif" stroke="none">List</text>
    </g>
    <g fill="rgb(255,204,0)" text-rendering="geometricPrecision" shape-rendering="geometricPrecision" transform="matrix(1,0,0,1,15,15)" stroke="rgb(255,204,0)">
      <rect x="586.422" width="46.9473" height="30" y="143.6309" clip-path="url(#clipPath2)" stroke="none"/>
    </g>
    <g text-rendering="geometricPrecision" stroke-miterlimit="1.45" shape-rendering="geometricPrecision" transform="matrix(1,0,0,1,15,15)" stroke-linecap="butt">
      <rect fill="none" x="586.422" width="46.9473" height="30" y="143.6309" clip-path="url(#clipPath2)"/>
      <text x="593.422" xml:space="preserve" y="162.7852" clip-path="url(#clipPath2)" font-family="sans-serif" stroke="none">Menu</text>
    </g>
    <g fill="rgb(255,204,0)" text-rendering="geometricPrecision" shape-rendering="geometricPrecision" transform="matrix(1,0,0,1,15,15)" stroke="rgb(255,204,0)">
      <rect x="772.193" width="75.998" height="30" y="529.8954" clip-path="url(#clipPath2)" stroke="none"/>
    </g>
    <g text-rendering="geometricPrecision" stroke-miterlimit="1.45" shape-rendering="geometricPrecision" transform="matrix(1,0,0,1,15,15)" stroke-linecap="butt">
      <rect fill="none" x="772.193" width="75.998" height="30" y="529.8954" clip-path="url(#clipPath2)"/>
      <text x="779.1931" xml:space="preserve" y="549.0497" clip-path="url(#clipPath2)" font-family="sans-serif" stroke="none">StoredCall</text>
    </g>
    <g fill="rgb(255,204,0)" text-rendering="geometricPrecision" shape-rendering="geometricPrecision" transform="matrix(1,0,0,1,15,15)" stroke="rgb(255,204,0)">
      <rect x="154.6428" width="106.5137" height="30" y="410.6724" clip-path="url(#clipPath2)" stroke="none"/>
    </g>
    <g text-rendering="geometricPrecision" stroke-miterlimit="1.45" shape-rendering="geometricPrecision" transform="matrix(1,0,0,1,15,15)" stroke-linecap="butt">
      <rect fill="none" x="154.6428" width="106.5137" height="30" y="410.6724" clip-path="url(#clipPath2)"/>
      <text x="161.6428" xml:space="preserve" y="429.8267" clip-path="url(#clipPath2)" font-family="sans-serif" stroke="none">SerialTokenizer</text>
    </g>
    <g fill="rgb(255,204,0)" text-rendering="geometricPrecision" shape-rendering="geometricPrecision" transform="matrix(1,0,0,1,15,15)" stroke="rgb(255,204,0)">
      <rect x="34.3184" width="90.3242" height="30" y="410.6724" clip-path="url(#clipPath2)" stroke="none"/>
    </g>
    <g text-rendering="geometricPrecision" stroke-miterlimit="1.45" shape-rendering="geometricPrecision" transform="matrix(1,0,0,1,15,15)" stroke-linecap="butt">
      <rect fill="none" x="34.3184" width="90.3242" height="30" y="410.6724" clip-path="url(#clipPath2)"/>
      <text x="41.3184" xml:space="preserve" y="429.8267" clip-path="url(#clipPath2)" font-family="sans-serif" stroke="none">ParseInteger</text>
    </g>
    <g fill="rgb(255,204,0)" text-rendering="geometricPrecision" shape-rendering="geometricPrecision" transform="matrix(1,0,0,1,15,15)" stroke="rgb(255,204,0)">
      <rect x="1081.3238" width="38.4277" height="30" y="410.6724" clip-path="url(#clipPath2)" stroke="none"/>
    </g>
    <g text-rendering="geometricPrecision" stroke-miterlimit="1.45" shape-rendering="geometricPrecision" transform="matrix(1,0,0,1,15,15)" stroke-linecap="butt">
      <rect fill="none" x="1081.3238" width="38.4277" height="30" y="410.6724" clip-path="url(#clipPath2)"/>
      <text x="1088.3239" xml:space="preserve" y="429.8267" clip-path="url(#clipPath2)" font-family="sans-serif" stroke="none">Pins</text>
    </g>
    <g fill="rgb(255,204,0)" text-rendering="geometricPrecision" shape-rendering="geometricPrecision" transform="matrix(1,0,0,1,15,15)" stroke="rgb(255,204,0)">
      <rect x="108.0566" width="87.8574" height="30" y="295.7825" clip-path="url(#clipPath2)" stroke="none"/>
    </g>
    <g text-rendering="geometricPrecision" stroke-miterlimit="1.45" shape-rendering="geometricPrecision" transform="matrix(1,0,0,1,15,15)" stroke-linecap="butt">
      <rect fill="none" x="108.0566" width="87.8574" height="30" y="295.7825" clip-path="url(#clipPath2)"/>
      <text x="115.0566" xml:space="preserve" y="314.9368" clip-path="url(#clipPath2)" font-family="sans-serif" stroke="none">ReadInteger</text>
    </g>
    <g fill="rgb(255,204,0)" text-rendering="geometricPrecision" shape-rendering="geometricPrecision" transform="matrix(1,0,0,1,15,15)" stroke="rgb(255,204,0)">
      <rect x="1140.5027" width="73.1621" height="30" y="143.6309" clip-path="url(#clipPath2)" stroke="none"/>
    </g>
    <g text-rendering="geometricPrecision" stroke-miterlimit="1.45" shape-rendering="geometricPrecision" transform="matrix(1,0,0,1,15,15)" stroke-linecap="butt">
      <rect fill="none" x="1140.5027" width="73.1621" height="30" y="143.6309" clip-path="url(#clipPath2)"/>
      <text x="1147.5027" xml:space="preserve" y="162.7852" clip-path="url(#clipPath2)" font-family="sans-serif" stroke="none">RgbStripe</text>
    </g>
    <g fill="rgb(255,204,0)" text-rendering="geometricPrecision" shape-rendering="geometricPrecision" transform="matrix(1,0,0,1,15,15)" stroke="rgb(255,204,0)">
      <rect x="1141.947" width="70.2734" height="30" y="295.7825" clip-path="url(#clipPath2)" stroke="none"/>
    </g>
    <g text-rendering="geometricPrecision" stroke-miterlimit="1.45" shape-rendering="geometricPrecision" transform="matrix(1,0,0,1,15,15)" stroke-linecap="butt">
      <rect fill="none" x="1141.947" width="70.2734" height="30" y="295.7825" clip-path="url(#clipPath2)"/>
      <text x="1148.947" xml:space="preserve" y="314.9368" clip-path="url(#clipPath2)" font-family="sans-serif" stroke="none">Ws2812b</text>
    </g>
    <g fill="rgb(255,204,0)" text-rendering="geometricPrecision" shape-rendering="geometricPrecision" transform="matrix(1,0,0,1,15,15)" stroke="rgb(255,204,0)">
      <rect x="806.1034" width="120.7988" height="30" y="0" clip-path="url(#clipPath2)" stroke="none"/>
    </g>
    <g text-rendering="geometricPrecision" stroke-miterlimit="1.45" shape-rendering="geometricPrecision" transform="matrix(1,0,0,1,15,15)" stroke-linecap="butt">
      <rect fill="none" x="806.1034" width="120.7988" height="30" y="0" clip-path="url(#clipPath2)"/>
      <text x="813.1034" xml:space="preserve" y="19.1543" clip-path="url(#clipPath2)" font-family="sans-serif" stroke="none">RgbStripeConsole</text>
    </g>
    <g fill="rgb(255,204,0)" text-rendering="geometricPrecision" shape-rendering="geometricPrecision" transform="matrix(1,0,0,1,15,15)" stroke="rgb(255,204,0)">
      <rect x="1377.2296" width="67.2852" height="30" y="529.8954" clip-path="url(#clipPath2)" stroke="none"/>
    </g>
    <g text-rendering="geometricPrecision" stroke-miterlimit="1.45" shape-rendering="geometricPrecision" transform="matrix(1,0,0,1,15,15)" stroke-linecap="butt">
      <rect fill="none" x="1377.2296" width="67.2852" height="30" y="529.8954" clip-path="url(#clipPath2)"/>
      <text x="1384.2296" xml:space="preserve" y="549.0497" clip-path="url(#clipPath2)" font-family="sans-serif" stroke="none">RunTime</text>
    </g>
    <g fill="rgb(255,204,0)" text-rendering="geometricPrecision" shape-rendering="geometricPrecision" transform="matrix(1,0,0,1,15,15)" stroke="rgb(255,204,0)">
      <rect x="1265.4161" width="81.3535" height="30" y="664.0489" clip-path="url(#clipPath2)" stroke="none"/>
    </g>
    <g text-rendering="geometricPrecision" stroke-miterlimit="1.45" shape-rendering="geometricPrecision" transform="matrix(1,0,0,1,15,15)" stroke-linecap="butt">
      <rect fill="none" x="1265.4161" width="81.3535" height="30" y="664.0489" clip-path="url(#clipPath2)"/>
      <text x="1272.4161" xml:space="preserve" y="683.2032" clip-path="url(#clipPath2)" font-family="sans-serif" stroke="none">Timestamp</text>
      <path fill="none" d="M956.8055 559.8954 L956.8055 569.8954 L956.5555 685.9037 L955.8052 772.0348 L955.0551 816.2429 L954.8049 840.0206 L954.8049 846.9913" clip-path="url(#clipPath2)"/>
      <path d="M954.8049 854.9913 L959.8049 842.9913 L954.8049 845.9913 L949.8049 842.9913 Z" clip-path="url(#clipPath2)" stroke="none"/>
      <path fill="none" d="M712.1774 694.049 L712.1774 704.049 L712.339 705.5744 L713.5701 708.9969 L717.3768 714.7472 L725.2448 722.6902 L735.0934 729.7266 L740.3478 732.4882 L912.5444 811.5814 L936.0994 822.4006 L938.1187 823.4869 L940.4265 825.8166 L940.7149 827.0601 L940.7149 846.9933" clip-path="url(#clipPath2)"/>
      <path d="M940.7149 854.9933 L945.7149 842.9933 L940.7149 845.9933 L935.7149 842.9933 Z" clip-path="url(#clipPath2)" stroke="none"/>
      <path fill="none" d="M1178.5175 694.049 L1178.5175 704.049 L1178.3575 705.5781 L1177.1399 709.029 L1173.3746 714.8669 L1165.5925 722.991 L1155.8512 730.2541 L1150.6539 733.1367 L991.1224 810.9329 L972.1753 820.1725 L968.2744 822.3848 L964.5128 825.8467 L963.3983 828.2502 L963.259 829.4806 L963.259 846.9707" clip-path="url(#clipPath2)"/>
      <path d="M963.259 854.9707 L968.259 842.9707 L963.259 845.9707 L958.259 842.9707 Z" clip-path="url(#clipPath2)" stroke="none"/>
      <path fill="none" d="M1117.6075 559.8954 L1117.6075 569.8954 L1117.3005 584.1122 L1114.8448 613.3374 L1109.9333 642.8875 L1102.5662 671.8856 L1095.4292 692.7444 L1089.9038 706.0211 L1083.7645 718.6666 L1077.0114 730.5712 L1069.6442 741.6252 L1061.663 751.7193 L1053.068 760.7437 L1043.859 768.5887 L1039.0243 772.0348 L1000.6756 797.6479 L983.0729 809.6527 L966.0989 822.2916 L961.0696 827.1387 L960.441 828.4886 L960.441 846.9947" clip-path="url(#clipPath2)"/>
      <path d="M960.441 854.9947 L965.441 842.9947 L960.441 845.9947 L955.441 842.9947 Z" clip-path="url(#clipPath2)" stroke="none"/>
      <path fill="none" d="M1152.3992 559.8954 L1152.3992 569.8954 L1152.835 577.0916 L1156.3209 597.6066 L1162.4213 621.3378 L1165.9072 641.8527 L1166.343 649.049 L1166.343 656.0197" clip-path="url(#clipPath2)"/>
      <path d="M1166.343 664.0197 L1171.343 652.0197 L1166.343 655.0197 L1161.343 652.0197 Z" clip-path="url(#clipPath2)" stroke="none"/>
      <path fill="none" d="M457.0044 440.6724 L457.0044 450.6724 L457.229 453.8231 L459.0257 461.3185 L462.6192 469.8004 L468.0093 478.5424 L471.3782 482.7839 L473.1188 484.9634 L476.263 489.9409 L480.1372 498.9534 L483.7307 513.8563 L485.5274 532.0577 L485.752 542.3954 L485.6118 552.8497 L484.4898 571.9843 L482.2459 588.7535 L478.88 603.1573 L476.7764 609.4722 L474.6727 615.787 L471.3069 630.1908 L469.063 646.96 L467.941 666.0946 L467.8008 676.549 L467.8008 697.533 L467.9279 698.916 L468.9656 701.7291 L472.5885 706.0905 L481.5753 712.2373 L495.7303 718.8572 L515.5098 726.0526 L541.3701 733.9259 L573.7675 742.5798 L613.1581 752.1167 L635.6184 757.2484 L935.0789 824.5206 L935.0789 846.9908" clip-path="url(#clipPath2)"/>
      <path d="M935.0789 854.9908 L940.0789 842.9908 L935.0789 845.9908 L930.0789 842.9908 Z" clip-path="url(#clipPath2)" stroke="none"/>
      <path fill="none" d="M475.0822 440.6724 L475.0822 450.6724 L475.4077 453.8231 L478.0121 461.3185 L483.2208 469.8004 L491.0339 478.5424 L495.9171 482.7839 L498.44 484.9634 L502.9977 489.9409 L506.9042 495.7431 L510.1597 502.3699 L512.764 509.8213 L514.7173 518.0974 L516.4265 532.0577 L516.752 542.3954 L517.0833 547.6965 L519.7337 557.8552 L525.0345 567.4224 L532.9857 576.3984 L543.5873 584.783 L556.8394 592.5762 L572.7418 599.7781 L591.2947 606.3887 L601.565 609.4722 L642.9538 621.2216 L653.1313 624.3039 L669.4155 630.5972 L678.0664 635.5959 L682.1374 639.1401 L684.8514 642.9029 L686.2084 646.9263 L686.3781 649.049 L686.3781 656.0197" clip-path="url(#clipPath2)"/>
      <path d="M686.3781 664.0197 L691.3781 652.0197 L686.3781 655.0197 L681.3781 652.0197 Z" clip-path="url(#clipPath2)" stroke="none"/>
      <path fill="none" d="M511.2376 440.6724 L511.2376 450.6724 L511.4581 452.1885 L513.2221 455.5647 L516.7501 459.3237 L522.042 463.3748 L533.2874 469.8004 L554.4551 478.5424 L580.9149 487.0254 L602.0826 495.7674 L613.3281 502.193 L618.62 506.2441 L622.1479 510.0031 L623.9119 513.3793 L624.1324 514.8954 L624.1324 521.8661" clip-path="url(#clipPath2)"/>
      <path d="M624.1324 529.8661 L629.1324 517.8661 L624.1324 520.8661 L619.1324 517.8661 Z" clip-path="url(#clipPath2)" stroke="none"/>
      <path fill="none" d="M676.2132 559.8954 L676.2132 569.8954 L676.4438 571.4407 L678.2885 575.0502 L681.978 579.2758 L687.5121 584.0267 L699.2723 591.9396 L721.4092 603.481 L735.2447 609.4722 L742.393 612.5557 L755.3062 619.1662 L766.3746 626.3681 L775.5983 634.1614 L782.9772 642.546 L788.5114 651.5219 L792.2009 661.0892 L794.0456 671.2479 L794.2762 676.549 L794.5677 681.961 L796.8998 693.0074 L801.5641 704.3503 L808.5605 715.9896 L817.8891 727.9253 L829.5497 740.1575 L843.5425 752.6861 L859.8675 765.5111 L868.9045 772.0348 L912.9651 803.0224 L926.3385 812.6263 L939.2343 822.7374 L943.0553 826.6151 L943.5329 827.695 L943.5329 846.994" clip-path="url(#clipPath2)"/>
      <path d="M943.5329 854.994 L948.5329 842.994 L943.5329 845.994 L938.5329 842.994 Z" clip-path="url(#clipPath2)" stroke="none"/>
      <path fill="none" d="M631.5726 559.8954 L631.5726 569.8954 L631.7468 571.4407 L633.1406 575.0502 L637.8447 581.5912 L648.9953 591.9396 L665.7212 603.481 L686.6285 615.4633 L703.3544 627.0048 L714.5049 637.3531 L719.2091 643.8942 L720.6029 647.5037 L720.7772 649.049 L720.7772 656.0197" clip-path="url(#clipPath2)"/>
      <path d="M720.7772 664.0197 L725.7772 652.0197 L720.7772 655.0197 L715.7772 652.0197 Z" clip-path="url(#clipPath2)" stroke="none"/>
      <path fill="none" d="M438.9267 440.6724 L438.9267 450.6724 L438.7653 453.8231 L437.4739 461.3185 L434.8912 469.8004 L431.0171 478.5424 L426.1745 487.0254 L422.3004 495.7674 L419.7177 504.2494 L418.4264 511.7448 L418.265 514.8954 L418.265 521.8661" clip-path="url(#clipPath2)"/>
      <path d="M418.265 529.8661 L423.265 517.8661 L418.265 520.8661 L413.265 517.8661 Z" clip-path="url(#clipPath2)" stroke="none"/>
      <path fill="none" d="M383.3331 559.8954 L383.3331 569.8954 L383.0434 573.1627 L380.7259 581.5912 L376.0909 591.9396 L369.1384 603.481 L364.7931 609.4722 L362.548 612.5557 L358.4924 619.1662 L355.0162 626.3681 L352.1193 634.1614 L348.8604 646.96 L346.5428 666.0946 L346.2532 676.549 L346.2532 697.533 L346.3813 698.9105 L347.4282 701.679 L351.0826 705.8842 L360.1477 711.6439 L374.426 717.6539 L394.3779 723.9972 L420.4635 730.7565 L453.143 738.0146 L492.8768 745.8546 L515.5328 750.0186 L898.9332 819.029 L929.4429 824.5206 L929.4429 846.9908" clip-path="url(#clipPath2)"/>
      <path d="M929.4429 854.9908 L934.4429 842.9908 L929.4429 845.9908 L924.4429 842.9908 Z" clip-path="url(#clipPath2)" stroke="none"/>
      <path fill="none" d="M424.4294 559.8954 L424.4294 569.8954 L424.6039 571.381 L425.9332 574.4996 L430.0435 579.31 L438.5388 585.3105 L449.1728 589.9155 L454.8463 591.3798 L638.7617 627.5645 L644.4351 629.0289 L655.0692 633.6338 L663.5645 639.6343 L667.6747 644.4448 L669.004 647.5634 L669.1785 649.049 L669.1785 656.0197" clip-path="url(#clipPath2)"/>
      <path d="M669.1785 664.0197 L674.1785 652.0197 L669.1785 655.0197 L664.1785 652.0197 Z" clip-path="url(#clipPath2)" stroke="none"/>
      <path fill="none" d="M403.8812 559.8954 L403.8812 569.8954 L404.2744 586.5709 L406.6338 632.3735 L407.027 649.049 L407.027 656.0197" clip-path="url(#clipPath2)"/>
      <path d="M407.027 664.0197 L412.027 652.0197 L407.027 655.0197 L402.027 652.0197 Z" clip-path="url(#clipPath2)" stroke="none"/>
      <path fill="none" d="M407.027 694.049 L407.027 704.049 L407.2014 705.535 L408.5298 708.6576 L412.6377 713.4803 L421.128 719.5063 L431.7557 724.143 L437.4258 725.6243 L932.2609 824.5206 L932.2609 846.9908" clip-path="url(#clipPath2)"/>
      <path d="M932.2609 854.9908 L937.2609 842.9908 L932.2609 845.9908 L927.2609 842.9908 Z" clip-path="url(#clipPath2)" stroke="none"/>
      <path fill="none" d="M362.7849 559.8954 L362.7849 569.8954 L362.6374 571.4407 L361.4576 575.0502 L357.4756 581.5912 L348.037 591.9396 L333.8791 603.481 L316.1816 615.4633 L302.0237 627.0048 L292.5851 637.3531 L288.6032 643.8942 L287.4233 647.5037 L287.2758 649.049 L287.2758 656.0197" clip-path="url(#clipPath2)"/>
      <path d="M287.2758 664.0197 L292.2758 652.0197 L287.2758 655.0197 L282.2758 652.0197 Z" clip-path="url(#clipPath2)" stroke="none"/>
      <path fill="none" d="M258.7988 694.049 L258.7988 704.049 L258.9745 705.5278 L260.3128 708.5952 L264.4511 713.2474 L273.0043 718.921 L283.7107 723.1166 L289.4228 724.3625 L896.0009 819.707 L926.6248 824.5206 L926.6248 846.9908" clip-path="url(#clipPath2)"/>
      <path d="M926.6248 854.9908 L931.6248 842.9908 L926.6248 845.9908 L921.6248 842.9908 Z" clip-path="url(#clipPath2)" stroke="none"/>
      <path fill="none" d="M342.2367 559.8954 L342.2367 569.8954 L341.8845 571.4407 L339.0667 575.0502 L333.4312 579.2758 L324.978 584.0267 L313.707 589.2122 L299.6182 594.7415 L273.2018 603.481 L230.9355 615.4633 L204.5191 624.2029 L190.4303 629.7321 L179.1593 634.9176 L170.7061 639.6686 L165.0706 643.8942 L162.2528 647.5037 L161.9006 649.049 L161.9006 656.0197" clip-path="url(#clipPath2)"/>
      <path d="M161.9006 664.0197 L166.9006 652.0197 L161.9006 655.0197 L156.9006 652.0197 Z" clip-path="url(#clipPath2)" stroke="none"/>
      <path fill="none" d="M151.9567 694.049 L151.9567 704.049 L152.133 705.5241 L153.4754 708.5638 L157.6262 713.1301 L166.2055 718.6259 L176.9445 722.5991 L182.674 723.7265 L893.0896 820.3431 L923.8068 824.5206 L923.8068 846.9908" clip-path="url(#clipPath2)"/>
      <path d="M923.8068 854.9908 L928.8068 842.9908 L923.8068 845.9908 L918.8068 842.9908 Z" clip-path="url(#clipPath2)" stroke="none"/>
      <path fill="none" d="M444.9776 559.8954 L444.9776 569.8954 L445.1541 571.3683 L446.4987 574.3907 L450.6565 578.9039 L459.2499 584.2899 L470.0068 588.1255 L475.7458 589.1794 L805.7448 629.7649 L811.4837 630.8188 L822.2405 634.6545 L830.834 640.0405 L834.9918 644.5536 L836.3364 647.576 L836.5129 649.049 L836.5129 656.0197" clip-path="url(#clipPath2)"/>
      <path d="M836.5129 664.0197 L841.5129 652.0197 L836.5129 655.0197 L831.5129 652.0197 Z" clip-path="url(#clipPath2)" stroke="none"/>
      <path fill="none" d="M493.1599 440.6724 L493.1599 450.6724 L493.5864 453.8231 L496.9984 461.3185 L503.8224 469.8004 L514.0584 478.5424 L520.4559 482.7839 L523.7613 484.9634 L529.7323 489.9409 L534.8503 495.7431 L539.1154 502.3699 L542.5273 509.8213 L545.0864 518.0974 L546.7924 527.1981 L547.6454 537.1235 L547.752 542.3954 L547.9783 545.0758 L549.7458 550.3875 L553.1714 555.6189 L558.1406 560.7524 L564.5391 565.7705 L572.2524 570.6554 L586.038 577.6945 L607.9539 586.4494 L633.0713 594.3544 L660.4756 601.2682 L689.2521 607.0499 L703.869 609.4722 L781.9276 621.5106 L800.2225 624.4531 L829.4944 629.9363 L849.0091 634.8834 L857.2418 638.2419 L859.6812 640.3134 L859.986 641.299 L859.986 656.0045" clip-path="url(#clipPath2)"/>
      <path d="M859.986 664.0045 L864.986 652.0045 L859.986 655.0045 L854.986 652.0045 Z" clip-path="url(#clipPath2)" stroke="none"/>
      <path fill="none" d="M1082.8159 559.8954 L1082.8159 569.8954 L1082.4723 571.4407 L1079.7241 575.0502 L1074.2278 579.2758 L1065.9833 584.0267 L1054.9906 589.2122 L1041.2496 594.7415 L1015.4855 603.481 L994.8741 609.4722 L974.2628 615.4633 L948.4985 624.2029 L934.7577 629.7321 L923.765 634.9176 L915.5204 639.6686 L910.024 643.8942 L907.2759 647.5037 L906.9323 649.049 L906.9323 656.0197" clip-path="url(#clipPath2)"/>
      <path d="M906.9323 664.0197 L911.9323 652.0197 L906.9323 655.0197 L901.9323 652.0197 Z" clip-path="url(#clipPath2)" stroke="none"/>
      <path fill="none" d="M871.7226 694.049 L871.7226 704.049 L872.3057 707.7601 L876.9699 719.7398 L886.2985 737.1904 L900.2913 759.3853 L909.0367 772.0348 L927.2461 797.6479 L935.6044 809.6527 L943.6643 822.2916 L946.0524 827.1387 L946.3509 828.4886 L946.3509 846.9947" clip-path="url(#clipPath2)"/>
      <path d="M946.3509 854.9947 L951.3509 842.9947 L946.3509 845.9947 L941.3509 842.9947 Z" clip-path="url(#clipPath2)" stroke="none"/>
      <path fill="none" d="M515.5557 325.7825 L515.5557 335.7825 L515.3793 337.2565 L514.0357 340.2869 L509.881 344.8248 L501.294 350.2619 L490.5453 354.1615 L484.8106 355.2496 L475.7594 356.5177 L457.7279 359.646 L439.9086 363.5485 L422.4429 368.2071 L405.4724 373.6034 L389.1385 379.7192 L373.5827 386.5363 L358.9464 394.0364 L345.3712 402.2013 L332.9984 411.0126 L321.9697 420.4522 L312.4263 430.5017 L304.5099 441.143 L298.3618 452.3578 L294.1236 464.1278 L291.9367 476.4348 L291.6567 482.7839 L291.5639 489.1204 L290.8214 501.3333 L289.3363 512.9327 L287.1087 523.9185 L284.1386 534.2906 L280.426 544.0493 L275.9708 553.1945 L270.7731 561.726 L264.8329 569.644 L258.1501 576.9485 L250.7248 583.6394 L242.5569 589.7168 L233.6466 595.1806 L223.9937 600.0308 L213.5983 604.2675 L202.4603 607.8907 L196.6129 609.4722 L185.1037 612.5557 L164.3128 619.1662 L146.4921 626.3681 L131.6415 634.1614 L119.761 642.546 L110.8507 651.5219 L104.9104 661.0892 L102.4044 668.6528 L101.6619 673.8799 L101.569 676.549 L101.569 719.549 L272.1748 741.4044 L890.2401 820.5815 L920.9888 824.5206 L920.9888 846.9908" clip-path="url(#clipPath2)"/>
      <path d="M920.9888 854.9908 L925.9888 842.9908 L920.9888 845.9908 L915.9888 842.9908 Z" clip-path="url(#clipPath2)" stroke="none"/>
      <path fill="none" d="M550.7767 325.7825 L550.7767 335.7825 L550.9952 360.3629 L552.7437 408.0248 L555.2024 439.4517 L557.388 456.9135 L560.0107 470.6923 L563.0704 480.0243 L564.7643 482.7839 L566.4581 484.9634 L569.5179 489.9409 L573.288 498.9534 L576.785 513.8563 L578.5334 532.0577 L578.752 542.3954 L578.9958 547.6965 L580.9462 557.8552 L584.847 567.4224 L590.6982 576.3984 L598.4998 584.783 L608.2518 592.5762 L619.9542 599.7781 L633.607 606.3887 L641.1648 609.4722 L663.6334 618.1398 L672.9953 621.985 L687.9744 629.655 L695.9321 635.418 L699.6768 639.2787 L702.1733 643.1629 L703.4216 647.0778 L703.5776 649.049 L703.5776 656.0197" clip-path="url(#clipPath2)"/>
      <path d="M703.5776 664.0197 L708.5776 652.0197 L703.5776 655.0197 L698.5776 652.0197 Z" clip-path="url(#clipPath2)" stroke="none"/>
      <path fill="none" d="M533.1662 325.7825 L533.1662 335.7825 L533.0266 337.8859 L531.9102 341.7552 L529.6772 345.2097 L526.3278 348.2916 L519.2103 352.3079 L505.8126 356.7519 L497.4391 358.6783 L438.266 370.9276 L435.5185 371.6229 L430.285 373.7209 L425.4005 376.7691 L420.8648 380.7751 L416.678 385.747 L412.8401 391.6926 L407.7375 402.4539 L402.1551 420.2841 L397.9684 442.1513 L395.1772 468.1186 L393.7816 498.2491 L393.6071 514.8954 L393.6071 521.8661" clip-path="url(#clipPath2)"/>
      <path d="M393.6071 529.8661 L398.6071 517.8661 L393.6071 520.8661 L388.6071 517.8661 Z" clip-path="url(#clipPath2)" stroke="none"/>
      <path fill="none" d="M541.9714 325.7825 L541.9714 335.7825 L541.8408 337.2902 L540.7957 340.5986 L537.2682 346.1239 L528.9071 354.0642 L516.3654 361.9938 L508.5268 365.7275 L500.6882 369.4612 L488.1465 377.3907 L479.7853 385.331 L476.2579 390.8563 L475.2128 394.1648 L475.0822 395.6724 L475.0822 402.6431" clip-path="url(#clipPath2)"/>
      <path d="M475.0822 410.6431 L480.0822 398.6431 L475.0822 401.6431 L470.0822 398.6431 Z" clip-path="url(#clipPath2)" stroke="none"/>
      <path fill="none" d="M524.361 325.7825 L524.361 335.7825 L524.1846 337.2566 L522.8411 340.2878 L518.6867 344.828 L510.1003 350.27 L499.3524 354.1758 L493.6181 355.2671 L484.6137 356.5829 L466.6754 360.0697 L448.9481 364.6188 L431.5727 370.1369 L414.6898 376.5307 L398.4403 383.7066 L382.9649 391.5713 L368.4043 400.0314 L354.8992 408.9936 L342.5904 418.3643 L331.6186 428.0503 L322.1246 437.9581 L314.249 447.9943 L308.1328 458.0655 L303.9164 468.0784 L301.7408 477.9395 L301.4623 482.7839 L301.3234 492.4853 L300.2118 512.1517 L297.9886 531.6686 L294.6539 550.4348 L290.2076 567.8491 L284.6498 583.3102 L277.9804 596.2169 L272.2488 603.8589 L268.0804 607.8422 L265.892 609.4722 L257.5552 615.4633 L244.2164 627.0048 L235.3238 637.3531 L231.5723 643.8942 L230.4607 647.5037 L230.3218 649.049 L230.3218 656.0197" clip-path="url(#clipPath2)"/>
      <path d="M230.3218 664.0197 L235.3218 652.0197 L230.3218 655.0197 L225.3218 652.0197 Z" clip-path="url(#clipPath2)" stroke="none"/>
      <path fill="none" d="M559.5819 325.7825 L559.5819 335.7825 L559.707 360.8 L560.082 408.7275 L560.3248 415.7486 L561.8922 428.8338 L564.902 440.6429 L569.354 451.176 L575.2485 460.4331 L582.5853 468.4141 L591.3644 475.119 L601.5859 480.548 L607.2375 482.7839 L618.1724 487.0254 L635.6681 495.7674 L644.9627 502.193 L649.3367 506.2441 L652.2526 510.0031 L653.7106 513.3793 L653.8929 514.8954 L653.8929 521.8661" clip-path="url(#clipPath2)"/>
      <path d="M653.8929 529.8661 L658.8929 517.8661 L653.8929 520.8661 L648.8929 517.8661 Z" clip-path="url(#clipPath2)" stroke="none"/>
      <path fill="none" d="M568.3871 325.7825 L568.3871 335.7825 L568.6484 338.8993 L570.7385 346.1239 L574.9185 354.0642 L581.1885 361.9938 L589.0261 369.4612 L595.2961 377.3907 L599.4762 385.331 L601.5662 392.5556 L601.8275 395.6724 L601.8275 402.6431" clip-path="url(#clipPath2)"/>
      <path d="M601.8275 410.6431 L606.8275 398.6431 L601.8275 401.6431 L596.8275 398.6431 Z" clip-path="url(#clipPath2)" stroke="none"/>
      <path fill="none" d="M680.625 440.6724 L680.625 450.6724 L680.8013 452.1469 L682.1445 455.1807 L686.2977 459.7292 L694.8819 465.1884 L705.6271 469.1156 L711.3598 470.2184 L902.2636 495.3494 L907.9963 496.4522 L918.7416 500.3794 L927.3257 505.8386 L931.4789 510.3871 L932.8221 513.421 L932.9984 514.8954 L932.9984 521.8661" clip-path="url(#clipPath2)"/>
      <path d="M932.9984 529.8661 L937.9984 517.8661 L932.9984 520.8661 L927.9984 517.8661 Z" clip-path="url(#clipPath2)" stroke="none"/>
      <path fill="none" d="M644.8079 440.6724 L644.8079 450.6724 L645.1114 453.8231 L647.5392 461.3185 L652.3949 469.8004 L659.6784 478.5424 L668.7828 487.0254 L676.0663 495.7674 L680.9219 504.2494 L683.3498 511.7448 L683.6533 514.8954 L683.6533 521.8661" clip-path="url(#clipPath2)"/>
      <path d="M683.6533 529.8661 L688.6533 517.8661 L683.6533 520.8661 L678.6533 517.8661 Z" clip-path="url(#clipPath2)" stroke="none"/>
      <path fill="none" d="M608.9909 440.6724 L608.9909 450.6724 L608.6665 452.1885 L606.0717 455.5647 L600.8821 459.3237 L593.0977 463.3748 L582.7184 467.6272 L569.7443 471.9899 L545.4179 478.5424 L525.9568 482.7839 L506.4957 487.0254 L482.1693 493.5779 L469.1953 497.9406 L458.816 502.193 L451.0316 506.2441 L445.8419 510.0031 L443.2471 513.3793 L442.9228 514.8954 L442.9228 521.8661" clip-path="url(#clipPath2)"/>
      <path d="M442.9228 529.8661 L447.9228 517.8661 L442.9228 520.8661 L437.9228 517.8661 Z" clip-path="url(#clipPath2)" stroke="none"/>
      <path fill="none" d="M564.4397 694.049 L564.4397 704.049 L564.6109 705.5483 L565.9151 708.7719 L569.9479 713.9072 L578.2831 720.5792 L588.7167 726.0246 L594.2832 727.9374 L908.0534 816.1322 L936.6745 824.177 L937.5913 824.5934 L937.8969 825.1555 L937.8969 846.9915" clip-path="url(#clipPath2)"/>
      <path d="M937.8969 854.9915 L942.8969 842.9915 L937.8969 845.9915 L932.8969 842.9915 Z" clip-path="url(#clipPath2)" stroke="none"/>
      <path fill="none" d="M1410.8722 694.049 L1410.8722 704.049 L1410.6993 705.5421 L1409.3827 708.7179 L1405.3113 713.7055 L1396.8962 720.0722 L1386.3627 725.1354 L1380.7429 726.8444 L1007.4784 817.2252 L977.3491 824.5206 L977.3491 846.9908" clip-path="url(#clipPath2)"/>
      <path d="M977.3491 854.9908 L982.3491 842.9908 L977.3491 845.9908 L972.3491 842.9908 Z" clip-path="url(#clipPath2)" stroke="none"/>
      <path fill="none" d="M1177.0837 440.6724 L1177.0837 450.6724 L1177.5057 453.8231 L1180.8816 461.3185 L1187.6333 469.8004 L1197.7609 478.5424 L1204.0907 482.7839 L1205.7522 483.9655 L1208.9171 487.1584 L1213.2688 493.8712 L1218.3326 505.9888 L1222.5525 521.1346 L1225.9283 538.6637 L1228.4602 557.9311 L1230.1482 578.2919 L1230.9921 599.101 L1231.0977 609.4722 L1231.0977 664.5106 L1230.8416 671.2779 L1228.7931 684.1376 L1224.6962 696.0975 L1218.5508 707.1575 L1210.3569 717.3177 L1200.1147 726.578 L1187.824 734.9384 L1173.4847 742.399 L1165.547 745.7919 L1099.9963 772.0348 L974.2649 822.3708 L970.2375 824.1419 L968.895 825.1555 L968.895 846.9915" clip-path="url(#clipPath2)"/>
      <path d="M968.895 854.9915 L973.895 842.9915 L968.895 845.9915 L963.895 842.9915 Z" clip-path="url(#clipPath2)" stroke="none"/>
      <path fill="none" d="M988.1756 173.6309 L988.1756 183.6309 L988.5408 187.0388 L991.4623 196.5923 L997.3053 209.1903 L1006.0699 224.1064 L1011.5477 232.2067 L1012.9857 234.4765 L1015.7245 240.1867 L1019.4906 251.4564 L1023.8729 270.9077 L1027.5248 294.5461 L1030.4463 321.4223 L1032.6375 350.5873 L1034.5547 396.5495 L1034.9198 427.2833 L1034.9198 573.4161 L1034.7689 587.3032 L1033.5612 615.8795 L1031.1456 644.8116 L1027.5223 673.2433 L1022.6912 700.3183 L1016.6524 725.1803 L1009.4058 746.9732 L1003.1783 760.7886 L998.6492 768.5938 L996.2714 772.0348 L973.4534 803.0224 L966.5276 812.6263 L958.6124 824.9626 L957.623 827.695 L957.623 846.994" clip-path="url(#clipPath2)"/>
      <path d="M957.623 854.994 L962.623 842.994 L957.623 845.994 L952.623 842.994 Z" clip-path="url(#clipPath2)" stroke="none"/>
      <path fill="none" d="M965.4871 173.6309 L965.4871 183.6309 L965.3129 185.1181 L963.9861 188.2488 L959.8834 193.0969 L951.4037 199.1753 L940.7894 203.8776 L935.1263 205.3939 L789.9672 235.3382 L780.0488 237.4829 L761.4326 242.1295 L744.4027 247.2977 L728.9097 253.042 L714.9044 259.4168 L702.3372 266.4767 L691.1591 274.2761 L681.3205 282.8695 L672.7722 292.3114 L665.4648 302.6564 L659.3491 313.9588 L654.3756 326.2733 L650.4951 339.6541 L647.6581 354.156 L645.8155 369.8333 L644.9178 386.7405 L644.8079 395.6724 L644.8079 402.6431" clip-path="url(#clipPath2)"/>
      <path d="M644.8079 410.6431 L649.8079 398.6431 L644.8079 401.6431 L639.8079 398.6431 Z" clip-path="url(#clipPath2)" stroke="none"/>
      <path fill="none" d="M980.6127 173.6309 L980.6127 521.8519" clip-path="url(#clipPath2)"/>
      <path d="M980.6127 529.8519 L985.6127 517.8519 L980.6127 520.8519 L975.6127 517.8519 Z" clip-path="url(#clipPath2)" stroke="none"/>
      <path fill="none" d="M995.7384 173.6309 L995.7384 183.6309 L996.1114 187.0388 L999.0955 196.5923 L1005.0635 209.1903 L1014.0156 224.1064 L1019.6107 232.2067 L1022.5015 236.7883 L1027.7235 248.4132 L1032.1996 262.83 L1035.9296 279.4502 L1038.9137 297.6852 L1041.1516 316.9465 L1043.11 346.4753 L1043.4829 365.7275 L1043.679 378.153 L1045.2471 400.7341 L1048.3833 420.3282 L1053.0876 436.9821 L1059.3602 450.743 L1065.0936 459.1935 L1069.406 463.9477 L1074.1104 468.005 L1079.2068 471.3715 L1084.6952 474.053 L1090.5757 476.0554 L1093.6628 476.8038 L1137.5703 486.1062 L1145.1318 487.925 L1158.5807 492.509 L1169.7972 498.3546 L1178.7814 505.4618 L1185.5331 513.8306 L1190.0524 523.4611 L1192.3394 534.3531 L1192.3939 546.5068 L1191.5841 553.0568 L1189.4064 566.4722 L1184.6425 597.1503 L1179.198 639.1652 L1178.5175 649.049 L1178.5175 656.0197" clip-path="url(#clipPath2)"/>
      <path d="M1178.5175 664.0197 L1183.5175 652.0197 L1178.5175 655.0197 L1173.5175 652.0197 Z" clip-path="url(#clipPath2)" stroke="none"/>
      <path fill="none" d="M973.0499 173.6309 L973.0499 183.6309 L972.8657 185.2113 L971.3913 189.102 L966.4153 196.5923 L954.6205 209.1903 L936.9283 224.1064 L925.8706 232.2067 L922.968 234.4737 L917.4391 240.1619 L912.2789 247.2915 L907.4872 255.7454 L900.9909 270.6525 L893.6191 294.0692 L887.7217 320.6726 L883.2986 349.5247 L880.3499 379.6878 L878.8755 410.224 L878.6913 425.339 L878.8403 485.6145 L879.6225 565.2587 L880.5165 600.2341 L881.0753 609.4722 L882.1182 621.3378 L883.3102 641.8527 L883.4592 649.049 L883.4592 656.0197" clip-path="url(#clipPath2)"/>
      <path d="M883.4592 664.0197 L888.4592 652.0197 L883.4592 655.0197 L878.4592 652.0197 Z" clip-path="url(#clipPath2)" stroke="none"/>
      <path fill="none" d="M957.9243 173.6309 L957.9243 183.6309 L957.7488 185.1115 L956.4127 188.1921 L952.281 192.8851 L943.7415 198.6429 L933.0522 202.9439 L927.3492 204.2461 L593.092 260.1673 L587.3891 261.4696 L576.6998 265.7706 L568.1603 271.5284 L564.0286 276.2213 L562.6924 279.3019 L562.517 280.7825 L562.517 287.7532" clip-path="url(#clipPath2)"/>
      <path d="M562.517 295.7532 L567.517 283.7532 L562.517 286.7532 L557.517 283.7532 Z" clip-path="url(#clipPath2)" stroke="none"/>
      <path fill="none" d="M740.6926 325.7825 L740.6926 335.7825 L740.8176 375.7029 L741.1927 468.339 L741.4368 525.4625 L741.6753 532.7682 L743.3911 546.2637 L746.7587 558.2716 L751.7782 568.7918 L758.4494 577.8243 L766.7725 585.3691 L776.7473 591.4263 L788.374 595.9958 L794.8068 597.7227 L882.7767 618.1398 L890.8163 620.2639 L905.3397 625.6993 L917.7883 632.718 L928.162 641.3198 L936.4611 651.5048 L942.6854 663.2729 L946.8349 676.6243 L948.9097 691.5589 L949.169 699.6199 L949.1689 846.9827" clip-path="url(#clipPath2)"/>
      <path d="M949.1689 854.9827 L954.1689 842.9827 L949.1689 845.9827 L944.1689 842.9827 Z" clip-path="url(#clipPath2)" stroke="none"/>
      <path fill="none" d="M729.0338 325.7825 L729.0338 487.4416 L729.3132 524.9138 L730.7804 576.721 L732.4572 601.629 L733.5052 609.4722 L735.4615 621.3378 L737.6972 641.8527 L737.9767 649.049 L737.9767 656.0197" clip-path="url(#clipPath2)"/>
      <path d="M737.9767 664.0197 L742.9767 652.0197 L737.9767 655.0197 L732.9767 652.0197 Z" clip-path="url(#clipPath2)" stroke="none"/>
      <path fill="none" d="M717.3749 325.7825 L717.3749 335.7825 L717.1437 338.8993 L715.2946 346.1239 L711.5963 354.0642 L706.0488 361.9938 L699.1145 369.4612 L693.567 377.3907 L689.8687 385.331 L688.0195 392.5556 L687.7884 395.6724 L687.7884 402.6431" clip-path="url(#clipPath2)"/>
      <path d="M687.7884 410.6431 L692.7884 398.6431 L687.7884 401.6431 L682.7884 398.6431 Z" clip-path="url(#clipPath2)" stroke="none"/>
      <path fill="none" d="M590.3343 173.6309 L590.3343 183.6309 L590.1575 185.1021 L588.8113 188.111 L584.6486 192.5822 L576.045 197.8817 L565.2754 201.6091 L559.5296 202.6053 L226.1028 240.2116 L212.4271 241.9315 L186.3781 246.2891 L162.0657 251.8704 L139.49 258.6754 L118.6508 266.7041 L99.5482 275.9566 L82.1822 286.4327 L66.5529 298.1326 L52.6601 311.0562 L40.5039 325.2035 L30.0843 340.5745 L21.4013 357.1693 L14.4549 374.9877 L9.2451 394.0299 L5.7719 414.2958 L4.0353 435.7854 L3.8183 446.9891 L3.8183 719.549 L458.1765 772.0348 L881.7396 820.9633 L912.5348 824.5206 L912.5348 846.9908" clip-path="url(#clipPath2)"/>
      <path d="M912.5348 854.9908 L917.5348 842.9908 L912.5348 845.9908 L907.5348 842.9908 Z" clip-path="url(#clipPath2)" stroke="none"/>
      <path fill="none" d="M621.6324 173.6309 L621.6324 183.6309 L621.8422 185.2113 L623.5204 189.102 L629.1841 196.5923 L642.6093 209.1903 L662.747 224.1064 L675.3331 232.2067 L687.9192 240.307 L708.0569 255.2231 L721.4821 267.8212 L727.1458 275.3114 L728.824 279.2021 L729.0338 280.7825 L729.0338 287.7532" clip-path="url(#clipPath2)"/>
      <path d="M729.0338 295.7532 L734.0338 283.7532 L729.0338 286.7532 L724.0338 283.7532 Z" clip-path="url(#clipPath2)" stroke="none"/>
      <path fill="none" d="M613.8079 173.6309 L613.8079 183.6309 L614.1051 232.6558 L615.6653 301.1769 L617.4484 334.7873 L618.5628 345.7275 L620.6431 362.1292 L623.0205 387.8282 L623.3177 395.6724 L623.3177 402.6431" clip-path="url(#clipPath2)"/>
      <path d="M623.3177 410.6431 L628.3177 398.6431 L623.3177 401.6431 L618.3177 398.6431 Z" clip-path="url(#clipPath2)" stroke="none"/>
      <path fill="none" d="M605.9833 173.6309 L605.9833 183.6309 L605.5833 187.3805 L602.3827 196.3432 L595.9815 207.015 L586.3797 219.1053 L580.3786 225.5916 L573.9774 232.2067 L566.476 240.307 L554.4738 255.2231 L546.4723 267.8212 L542.4715 277.3746 L541.9714 280.7825 L541.9714 287.7532" clip-path="url(#clipPath2)"/>
      <path d="M541.9714 295.7532 L546.9714 283.7532 L541.9714 286.7532 L536.9714 283.7532 Z" clip-path="url(#clipPath2)" stroke="none"/>
      <path fill="none" d="M629.457 173.6309 L629.457 183.6309 L629.81 185.2113 L632.634 189.102 L638.2819 193.8901 L646.7539 199.4847 L664.7568 209.1903 L698.6447 224.1064 L719.8245 232.2067 L763.9239 248.3477 L766.7704 249.5786 L772.1925 253.1068 L777.2531 258.1275 L781.9522 264.7258 L786.2899 272.9863 L790.2661 282.9939 L793.8807 294.8335 L797.134 308.5898 L801.3361 333.0038 L805.6737 373.0562 L808.5654 422.3026 L810.0114 481.4216 L810.1921 514.8954 L810.1921 521.8661" clip-path="url(#clipPath2)"/>
      <path d="M810.1921 529.8661 L815.1921 517.8661 L810.1921 520.8661 L805.1921 517.8661 Z" clip-path="url(#clipPath2)" stroke="none"/>
      <path fill="none" d="M829.1916 559.8954 L829.1916 569.8954 L829.4333 571.4407 L831.3677 575.0502 L835.2363 579.2758 L841.0392 584.0267 L853.3704 591.9396 L876.5822 603.481 L891.0894 609.4722 L903.469 614.2875 L909.4638 616.9183 L920.2834 623.5189 L929.5431 631.9047 L937.2428 642.0757 L943.3826 654.032 L947.9624 667.7735 L950.9822 683.3002 L952.4422 700.6122 L952.5872 709.9376 L952.4871 729.0348 L952.112 805.4929 L951.9869 840.0206 L951.9869 846.9913" clip-path="url(#clipPath2)"/>
      <path d="M951.9869 854.9913 L956.9869 842.9913 L951.9869 845.9913 L946.9869 842.9913 Z" clip-path="url(#clipPath2)" stroke="none"/>
      <path fill="none" d="M791.1926 559.8954 L791.1926 569.8954 L790.9112 573.1627 L788.6602 581.5912 L784.1581 591.9396 L777.405 603.481 L768.9637 615.4633 L762.2107 627.0048 L757.7086 637.3531 L755.4576 645.7816 L755.1763 649.049 L755.1763 656.0197" clip-path="url(#clipPath2)"/>
      <path d="M755.1763 664.0197 L760.1763 652.0197 L755.1763 655.0197 L750.1763 652.0197 Z" clip-path="url(#clipPath2)" stroke="none"/>
      <path fill="none" d="M598.1588 173.6309 L598.1588 183.6309 L597.9838 185.114 L596.651 188.2135 L592.5295 192.9651 L584.0111 198.8438 L573.3483 203.2963 L567.6594 204.6794 L401.0938 234.9809 L393.2886 236.5899 L377.7391 240.8949 L362.3727 246.5514 L347.3112 253.4417 L332.6767 261.448 L318.5912 270.4527 L305.1767 280.3382 L292.5552 290.9866 L280.8486 302.2803 L270.179 314.1016 L260.6684 326.3329 L252.4387 338.8563 L245.612 351.5543 L240.3102 364.3091 L236.6554 377.0031 L234.7695 389.5185 L234.528 395.6724 L234.528 402.6431" clip-path="url(#clipPath2)"/>
      <path d="M234.528 410.6431 L239.528 398.6431 L234.528 401.6431 L229.528 398.6431 Z" clip-path="url(#clipPath2)" stroke="none"/>
      <path fill="none" d="M172.3951 440.6724 L172.3951 450.6724 L172.2493 452.1885 L171.0829 455.5647 L167.1466 461.3185 L157.8161 469.8004 L143.8203 478.5424 L135.0729 482.7839 L132.7767 483.9655 L128.403 487.1584 L124.3209 491.3906 L120.5304 496.5815 L115.3913 505.9888 L109.5597 521.1346 L104.8945 538.6637 L101.3955 557.9311 L99.0629 578.2919 L97.8966 599.101 L97.7508 609.4722 L97.7508 718.4218 L97.8906 718.9328 L99.0086 719.6394 L99.9869 719.835 L316.1241 747.4895 L918.1708 824.5206 L918.1708 846.9908" clip-path="url(#clipPath2)"/>
      <path d="M918.1708 854.9908 L923.1708 842.9908 L918.1708 845.9908 L913.1708 842.9908 Z" clip-path="url(#clipPath2)" stroke="none"/>
      <path fill="none" d="M207.8996 440.6724 L207.8996 450.6724 L207.7709 463.3803 L206.7414 488.9657 L204.6825 514.1193 L201.594 538.0519 L197.4761 559.9741 L192.3287 579.0963 L186.1518 594.6293 L180.8436 603.4487 L176.983 607.7956 L174.9563 609.4722 L167.2352 615.4633 L154.8814 627.0048 L146.6456 637.3531 L143.1711 643.8942 L142.1416 647.5037 L142.0129 649.049 L142.0129 656.0197" clip-path="url(#clipPath2)"/>
      <path d="M142.0129 664.0197 L147.0129 652.0197 L142.0129 655.0197 L137.0129 652.0197 Z" clip-path="url(#clipPath2)" stroke="none"/>
      <path fill="none" d="M243.4042 440.6724 L243.4042 450.6724 L243.6494 452.1885 L245.611 455.5647 L249.5343 459.3237 L255.4192 463.3748 L267.9247 469.8004 L291.4644 478.5424 L306.1768 482.7839 L320.8891 487.0254 L344.4288 495.7674 L356.9343 502.193 L362.8192 506.2441 L366.7425 510.0031 L368.7041 513.3793 L368.9493 514.8954 L368.9493 521.8661" clip-path="url(#clipPath2)"/>
      <path d="M368.9493 529.8661 L373.9493 517.8661 L368.9493 520.8661 L363.9493 517.8661 Z" clip-path="url(#clipPath2)" stroke="none"/>
      <path fill="none" d="M56.8995 440.6724 L56.8996 675.4962 L57.1743 680.8643 L59.3719 690.7696 L63.7672 699.5669 L70.3601 707.2563 L79.1507 713.8378 L90.1389 719.3114 L103.3248 723.6771 L118.7082 726.9348 L127.2241 728.1482 L486.1262 772.0348 L884.582 820.7579 L915.3528 824.5206 L915.3528 846.9908" clip-path="url(#clipPath2)"/>
      <path d="M915.3528 854.9908 L920.3528 842.9908 L915.3528 845.9908 L910.3528 842.9908 Z" clip-path="url(#clipPath2)" stroke="none"/>
      <path fill="none" d="M102.0616 440.6724 L102.0616 450.6724 L102.2378 452.1478 L103.58 455.189 L107.7302 459.7599 L116.3081 465.2656 L127.0455 469.2509 L132.7741 470.3848 L313.579 495.183 L319.3076 496.3169 L330.045 500.3023 L338.6229 505.8079 L342.7731 510.3789 L344.1153 513.42 L344.2915 514.8954 L344.2915 521.8661" clip-path="url(#clipPath2)"/>
      <path d="M344.2915 529.8661 L349.2915 517.8661 L344.2915 520.8661 L339.2915 517.8661 Z" clip-path="url(#clipPath2)" stroke="none"/>
      <path fill="none" d="M1113.3469 440.6724 L1113.3469 450.6724 L1113.5695 452.1885 L1115.3496 455.5647 L1118.91 459.3237 L1124.2506 463.3748 L1135.5994 469.8004 L1156.9617 478.5424 L1170.3131 482.7839 L1173.8179 483.9134 L1180.4937 486.72 L1186.7244 490.2569 L1192.51 494.5239 L1197.8506 499.5211 L1202.7461 505.2485 L1209.2549 515.2088 L1216.3757 531.0449 L1221.7163 549.8016 L1225.2766 571.4792 L1227.0569 596.0777 L1227.2794 609.4722 L1227.2794 663.1896 L1227.0469 670.1078 L1225.1874 683.1837 L1221.4684 695.2457 L1215.8899 706.2937 L1208.4519 716.3278 L1199.1543 725.348 L1187.9973 733.3542 L1174.9807 740.3465 L1167.7751 743.4624 L994.8411 812.9609 L971.9679 822.1532 L969.3906 823.3873 L966.4452 826.1583 L966.077 827.695 L966.077 846.994" clip-path="url(#clipPath2)"/>
      <path d="M966.077 854.994 L971.077 842.994 L966.077 845.994 L961.077 842.994 Z" clip-path="url(#clipPath2)" stroke="none"/>
      <path fill="none" d="M1100.5377 440.6724 L1100.5377 450.6724 L1100.7583 452.1885 L1102.5228 455.5647 L1106.052 459.3237 L1111.3457 463.3748 L1122.5947 469.8004 L1143.7695 478.5424 L1157.0038 482.7839 L1163.797 485.0575 L1175.793 490.7874 L1185.6686 498.0943 L1193.4237 506.9783 L1199.0583 517.4394 L1202.5725 529.4774 L1203.9662 543.0925 L1203.2395 558.2847 L1202.0809 566.4722 L1197.0983 597.1503 L1191.4038 639.1652 L1190.6919 649.049 L1190.6919 656.0197" clip-path="url(#clipPath2)"/>
      <path d="M1190.6919 664.0197 L1195.6919 652.0197 L1190.6919 655.0197 L1185.6919 652.0197 Z" clip-path="url(#clipPath2)" stroke="none"/>
      <path fill="none" d="M1087.7284 440.6724 L1087.7284 450.6724 L1087.9619 453.8231 L1089.8293 461.3185 L1093.5642 469.8004 L1099.1665 478.5424 L1106.1694 487.0254 L1111.7717 495.7674 L1115.5067 504.2494 L1117.3741 511.7448 L1117.6075 514.8954 L1117.6075 521.8661" clip-path="url(#clipPath2)"/>
      <path d="M1117.6075 529.8661 L1122.6075 517.8661 L1117.6075 520.8661 L1112.6075 517.8661 Z" clip-path="url(#clipPath2)" stroke="none"/>
      <path fill="none" d="M122.6995 325.7825 L122.6995 335.7825 L122.4599 337.2902 L120.5427 340.5986 L116.7083 344.2223 L110.9568 348.0703 L98.7348 354.0642 L75.7286 361.9938 L61.3498 365.7275 L39.2638 370.9276 L36.8482 371.6557 L32.247 374.0171 L27.9525 377.5939 L23.9647 382.396 L20.2838 388.4333 L16.9095 395.7157 L12.4233 408.9959 L7.5153 431.1537 L3.8344 458.4713 L1.3804 491.028 L0.1534 528.9035 L0 549.8607 L0 719.549 L878.9211 820.9671 L909.7168 824.5206 L909.7168 846.9908" clip-path="url(#clipPath2)"/>
      <path d="M909.7168 854.9908 L914.7168 842.9908 L909.7168 845.9908 L904.7168 842.9908 Z" clip-path="url(#clipPath2)" stroke="none"/>
      <path fill="none" d="M181.2711 325.7825 L181.2712 402.631" clip-path="url(#clipPath2)"/>
      <path d="M181.2712 410.631 L186.2712 398.631 L181.2712 401.631 L176.2712 398.631 Z" clip-path="url(#clipPath2)" stroke="none"/>
      <path fill="none" d="M151.9853 325.7825 L151.9853 335.7825 L151.8437 337.2902 L150.7108 340.5986 L146.8873 346.1239 L137.8242 354.0642 L124.2296 361.9938 L115.7329 365.7275 L107.2363 369.4612 L93.6416 377.3907 L84.5785 385.331 L80.7551 390.8563 L79.6222 394.1648 L79.4806 395.6724 L79.4806 402.6431" clip-path="url(#clipPath2)"/>
      <path d="M79.4806 410.6431 L84.4806 398.6431 L79.4806 401.6431 L74.4806 398.6431 Z" clip-path="url(#clipPath2)" stroke="none"/>
      <path fill="none" d="M1201.4711 173.6309 L1201.4711 183.6309 L1201.6392 185.1403 L1202.9194 188.4404 L1206.8782 193.8123 L1215.0602 200.9731 L1225.302 207.0304 L1230.7662 209.2697 L1242.4121 213.5074 L1265.6129 223.1943 L1288.5408 234.4439 L1311.0134 247.1934 L1332.849 261.3796 L1353.8655 276.9397 L1373.8809 293.8106 L1392.713 311.9292 L1410.1801 331.2327 L1426.0997 351.658 L1440.2903 373.1421 L1452.5695 395.622 L1462.7554 419.0348 L1470.6659 443.3173 L1476.1191 468.4067 L1478.933 494.2399 L1479.2932 507.4157 L1479.2932 719.549 L1013.3141 818.1059 L982.985 824.5206 L982.985 846.9908" clip-path="url(#clipPath2)"/>
      <path d="M982.985 854.9908 L987.985 842.9908 L982.985 845.9908 L977.985 842.9908 Z" clip-path="url(#clipPath2)" stroke="none"/>
      <path fill="none" d="M1152.6964 173.6309 L1152.6964 183.6309 L1152.5201 185.1066 L1151.1783 188.1498 L1147.0289 192.7271 L1138.4529 198.2459 L1127.7178 202.2477 L1121.9904 203.3903 L766.9354 252.6418 L756.8867 254.2131 L738.0885 258.2404 L721.2004 263.4222 L706.436 269.7292 L694.009 277.1316 L684.1328 285.5997 L678.5281 292.6324 L675.7001 297.6385 L673.6299 302.8944 L672.3443 308.3964 L672.004 311.2385 L671.053 322.7275 L668.9728 349.1917 L666.5953 386.3907 L666.2982 395.6724 L666.2982 402.6431" clip-path="url(#clipPath2)"/>
      <path d="M666.2982 410.6431 L671.2982 398.6431 L666.2982 401.6431 L661.2982 398.6431 Z" clip-path="url(#clipPath2)" stroke="none"/>
      <path fill="none" d="M1177.0837 173.6309 L1177.0837 287.7527" clip-path="url(#clipPath2)"/>
      <path d="M1177.0837 295.7527 L1182.0837 283.7527 L1177.0837 286.7527 L1172.0837 283.7527 Z" clip-path="url(#clipPath2)" stroke="none"/>
      <path fill="none" d="M1200.5082 325.7825 L1200.5082 335.7825 L1200.777 339.1337 L1202.9275 348.2333 L1207.2285 359.9236 L1213.6799 373.4781 L1217.712 380.7275 L1219.7953 385.0757 L1223.5587 397.478 L1226.7844 414.1555 L1229.4724 434.3089 L1232.4966 469.3077 L1234.6471 520.6785 L1234.9159 546.5822 L1234.9159 675.2695 L1234.6815 680.7249 L1232.8062 691.1589 L1229.0557 700.9572 L1223.4298 710.1195 L1215.9288 718.6461 L1206.5525 726.5368 L1195.3009 733.7917 L1182.174 740.4107 L1174.9073 743.4818 L1000.5074 813.0367 L974.0718 823.5798 L973.0399 824.0708 L971.8604 825.1761 L971.713 825.7903 L971.713 846.9921" clip-path="url(#clipPath2)"/>
      <path d="M971.713 854.9921 L976.713 842.9921 L971.713 845.9921 L966.713 842.9921 Z" clip-path="url(#clipPath2)" stroke="none"/>
      <path fill="none" d="M1177.0837 325.7825 L1177.0837 402.631" clip-path="url(#clipPath2)"/>
      <path d="M1177.0837 410.631 L1182.0837 398.631 L1177.0837 401.631 L1172.0837 398.631 Z" clip-path="url(#clipPath2)" stroke="none"/>
      <path fill="none" d="M1153.6593 325.7825 L1153.6593 335.7825 L1153.2443 338.8993 L1149.9242 346.1239 L1143.2839 354.0642 L1133.3236 361.9938 L1127.0985 365.7275 L1120.8733 369.4612 L1110.913 377.3907 L1104.2728 385.331 L1100.9528 392.5556 L1100.5377 395.6724 L1100.5377 402.6431" clip-path="url(#clipPath2)"/>
      <path d="M1100.5377 410.6431 L1105.5377 398.6431 L1100.5377 401.6431 L1095.5377 398.6431 Z" clip-path="url(#clipPath2)" stroke="none"/>
      <path fill="none" d="M881.6027 30 L881.6027 40 L881.7772 41.4853 L883.1069 44.6017 L887.2185 49.4054 L895.7166 55.392 L906.354 59.9794 L912.0293 61.4344 L1146.6571 107.1965 L1152.3324 108.6515 L1162.9698 113.239 L1171.4679 119.2255 L1175.5795 124.0292 L1176.9092 127.1456 L1177.0837 128.6309 L1177.0837 135.6016" clip-path="url(#clipPath2)"/>
      <path d="M1177.0837 143.6016 L1182.0837 131.6016 L1177.0837 134.6016 L1172.0837 131.6016 Z" clip-path="url(#clipPath2)" stroke="none"/>
      <path fill="none" d="M911.8024 30 L911.8024 40 L911.9793 41.4691 L913.3272 44.4621 L917.4951 48.8843 L926.1096 54.0824 L936.8928 57.6829 L942.6458 58.6113 L976.5311 62.219 L1040.8975 70.2281 L1100.7511 79.2979 L1156.1238 89.4317 L1207.0471 100.6328 L1253.5527 112.9043 L1295.6725 126.2494 L1333.4377 140.6713 L1366.8804 156.1732 L1389.1447 168.5103 L1402.6532 177.0742 L1415.0988 185.9099 L1426.4856 195.0177 L1436.8174 204.3982 L1446.0983 214.0517 L1454.332 223.9785 L1461.5228 234.1792 L1467.6744 244.654 L1472.791 255.4035 L1476.8763 266.4279 L1479.9344 277.7277 L1481.9692 289.3033 L1482.9847 301.1551 L1483.1115 307.1847 L1483.1115 719.549 L1016.1347 818.1182 L985.803 824.5206 L985.803 846.9908" clip-path="url(#clipPath2)"/>
      <path d="M985.803 854.9908 L990.803 842.9908 L985.803 845.9908 L980.803 842.9908 Z" clip-path="url(#clipPath2)" stroke="none"/>
      <path fill="none" d="M821.2032 30 L821.2032 40 L821.0269 41.4743 L819.6836 44.5073 L815.53 49.0529 L806.9451 54.5062 L796.1989 58.4261 L790.4656 59.5249 L424.9582 107.3864 L412.1667 109.2609 L386.6838 114.1563 L361.5008 120.4743 L336.8176 128.0878 L312.8342 136.87 L289.7505 146.6938 L267.7664 157.4322 L247.0818 168.9582 L227.8967 181.1448 L210.4111 193.8651 L194.8248 206.9919 L181.3377 220.3984 L170.1499 233.9575 L161.4612 247.5421 L155.4716 261.0255 L152.871 270.995 L152.0848 277.5435 L151.9853 280.7825 L151.9853 287.7532" clip-path="url(#clipPath2)"/>
      <path d="M151.9853 295.7532 L156.9853 283.7532 L151.9853 286.7532 L146.9853 283.7532 Z" clip-path="url(#clipPath2)" stroke="none"/>
      <path fill="none" d="M851.403 30 L851.403 40 L851.2324 41.5018 L849.9336 44.744 L845.9174 49.9369 L837.6166 56.7278 L827.226 62.322 L821.6824 64.3142 L663.2992 111.286 L650.0174 115.3649 L625.8879 123.6402 L604.962 132.0846 L587.1893 140.7131 L572.5193 149.5406 L560.902 158.582 L552.2869 167.8523 L546.6235 177.3663 L544.8831 182.2194 L538.6738 204.2067 L531.1279 232.2594 L523.8514 263.8837 L521.6954 276.9371 L521.4258 280.7825 L521.4258 287.7532" clip-path="url(#clipPath2)"/>
      <path d="M521.4258 295.7532 L526.4258 283.7532 L521.4258 286.7532 L516.4258 283.7532 Z" clip-path="url(#clipPath2)" stroke="none"/>
      <path fill="none" d="M1433.3007 559.8954 L1433.3007 569.8954 L1433.6301 573.3971 L1436.266 583.7006 L1441.5378 597.799 L1449.4454 614.9654 L1454.3878 624.4722 L1459.3301 634.0683 L1467.2378 652.222 L1472.5096 668.9913 L1475.1455 684.3759 L1475.475 691.549 L1475.475 719.549 L1365.9086 742.7696 L1010.4935 818.0934 L980.1671 824.5206 L980.1671 846.9908" clip-path="url(#clipPath2)"/>
      <path d="M980.1671 854.9908 L985.1671 842.9908 L980.1671 845.9908 L975.1671 842.9908 Z" clip-path="url(#clipPath2)" stroke="none"/>
      <path fill="none" d="M1410.8722 559.8954 L1410.8722 656.0235" clip-path="url(#clipPath2)"/>
      <path d="M1410.8722 664.0235 L1415.8722 652.0235 L1410.8722 655.0235 L1405.8722 652.0235 Z" clip-path="url(#clipPath2)" stroke="none"/>
      <path fill="none" d="M1388.4438 559.8954 L1388.4438 569.8954 L1388.283 571.4407 L1386.9962 575.0502 L1382.6536 581.5912 L1372.3596 591.9396 L1356.9188 603.481 L1337.6178 615.4633 L1322.177 627.0048 L1311.8832 637.3531 L1307.5404 643.8942 L1306.2537 647.5037 L1306.0929 649.049 L1306.0929 656.0197" clip-path="url(#clipPath2)"/>
      <path d="M1306.0929 664.0197 L1311.0929 652.0197 L1306.0929 655.0197 L1301.0929 652.0197 Z" clip-path="url(#clipPath2)" stroke="none"/>
      <path fill="none" d="M1306.0929 694.049 L1306.0929 704.049 L1305.9233 705.5538 L1304.6317 708.8198 L1300.6381 714.086 L1292.3837 721.0284 L1282.0513 726.8123 L1276.5387 728.9057 L1004.0852 815.1638 L975.7416 824.1374 L974.8337 824.5835 L974.531 825.1555 L974.531 846.9915" clip-path="url(#clipPath2)"/>
      <path d="M974.531 854.9915 L979.531 842.9915 L974.531 845.9915 L969.531 842.9915 Z" clip-path="url(#clipPath2)" stroke="none"/>
    </g>
  </g>
</svg>
